<svg xmlns="http://www.w3.org/2000/svg" viewBox="0 0 348.5 41.72"><defs><style>.cls-1{fill:#880064;}</style></defs><g id="Layer_2" data-name="Layer 2"><g id="Layer_1-2" data-name="Layer 1"><path class="cls-1" d="M13.45,11.06V17.9H30.1V28H13.45V40.81H0V.91H32.43V11.06Z"/><path class="cls-1" d="M60.42,26.33V40.81H47V26.16L31.92.91H46.11l8.15,13.8L62.47.91h13Z"/><path class="cls-1" d="M94.28,30.78H90.63v10H77.18V.91H96.39A23.5,23.5,0,0,1,106,2.74,14.18,14.18,0,0,1,112.35,8a14.33,14.33,0,0,1,2.22,8,14.14,14.14,0,0,1-1.94,7.47,13.62,13.62,0,0,1-5.58,5.07l8.37,12.31H101.06Zm5.36-18.27a6,6,0,0,0-4.11-1.22h-4.9v9.34h4.9a6,6,0,0,0,4.11-1.22A4.4,4.4,0,0,0,101,16,4.4,4.4,0,0,0,99.64,12.51Z"/><path class="cls-1" d="M184.57.91,171.8,40.81H157.38l-6.44-21.32-6.79,21.32H129.73L117,.91h13.85l7,22.69L145.12.91h12.37l6.95,23,7.36-23Z"/><path class="cls-1" d="M213.29,33.86H198.13l-2.68,7H181.77L199.21.91h13.23l17.44,39.9H216Zm-3.7-9.69-3.88-10-3.87,10Z"/><path class="cls-1" d="M238.72,11.34H227V.91h36.82V11.34H252.17V40.81H238.72Z"/><path class="cls-1" d="M276,39.07A19.73,19.73,0,0,1,268,31.66a20.43,20.43,0,0,1-2.88-10.8A20.43,20.43,0,0,1,268,10.06,19.87,19.87,0,0,1,276,2.65,24.25,24.25,0,0,1,287.39,0a25,25,0,0,1,10.38,2.05A19.26,19.26,0,0,1,305.29,8l-8.49,7.58q-3.71-4.67-8.72-4.67a8.94,8.94,0,0,0-6.79,2.7,10.14,10.14,0,0,0-2.56,7.27,10.13,10.13,0,0,0,2.56,7.27,9,9,0,0,0,6.79,2.71q5,0,8.72-4.68l8.49,7.58a19.17,19.17,0,0,1-7.52,5.93,25,25,0,0,1-10.38,2A24.25,24.25,0,0,1,276,39.07Z"/><path class="cls-1" d="M348.5.91v39.9H335V26.11H322.62v14.7H309.17V.91h13.45V15.05H335V.91Z"/></g></g></svg>