<svg xmlns="http://www.w3.org/2000/svg" xmlns:xlink="http://www.w3.org/1999/xlink" viewBox="0 0 3241.59 3085.45"><defs><style>.cls-1{fill:none;}.cls-2{clip-path:url(#clip-path);}.cls-3{fill:url(#linear-gradient);}.cls-4{fill:url(#linear-gradient-2);}.cls-5{fill:url(#linear-gradient-3);}.cls-6{fill:url(#linear-gradient-4);}.cls-7{fill:#ff7b00;}</style><clipPath id="clip-path" transform="translate(348.54 161.45)"><ellipse class="cls-1" cx="1371.68" cy="1350.7" rx="1371.68" ry="1350.7"/></clipPath><linearGradient id="linear-gradient" x1="1405.79" y1="1467.61" x2="2845.13" y2="1467.61" gradientUnits="userSpaceOnUse"><stop offset="0" stop-color="#ff7b00"/><stop offset="0.44" stop-color="#ff7901"/><stop offset="0.6" stop-color="#fd7203"/><stop offset="0.72" stop-color="#fb6608"/><stop offset="0.82" stop-color="#f8550e"/><stop offset="0.91" stop-color="#f43f17"/><stop offset="0.98" stop-color="#ee2421"/><stop offset="1" stop-color="#ed1c24"/></linearGradient><linearGradient id="linear-gradient-2" x1="-348.54" y1="881.86" x2="2634.94" y2="881.86" xlink:href="#linear-gradient"/><linearGradient id="linear-gradient-3" x1="1672.81" y1="335.26" x2="1892.96" y2="335.26" xlink:href="#linear-gradient"/><linearGradient id="linear-gradient-4" x1="80.51" y1="2215.08" x2="2794" y2="2215.08" gradientUnits="userSpaceOnUse"><stop offset="0" stop-color="#ff7b00"/><stop offset="0.33" stop-color="#ff7901"/><stop offset="0.52" stop-color="#fd7104"/><stop offset="0.66" stop-color="#fa6309"/><stop offset="0.79" stop-color="#f74f11"/><stop offset="0.91" stop-color="#f2361a"/><stop offset="1" stop-color="#ed1c24"/></linearGradient></defs><g id="Layer_2" data-name="Layer 2"><g id="Illustration"><g class="cls-2"><rect x="262.53" width="2979.06" height="3085.45"/><path class="cls-3" d="M2408,1245.53c12.3-58.93,26.68-135.34,79.18-183.22-12.63,37.89,1.3,78.4,30.28,109.18,36.18,38.44,89.44,49.61,136.94,78,20.44,12.23,39.42,26.14,53.82,42.71,36.93,42.49,40.19,98.87,24,149.93s-49.78,98.22-83,144.64c92.5-54.7,98.72-6,195.9-55.23-69.93,35-51.73,142.06-87.72,199.7-60.83,97.39,65.47,114.19-40.87,212.56-42.89,31.39-381.52-7.19-528-15.81-289.93-17.06-480.47-271.08-693.07-434.25-54.66-42-105-108.15-85.34-174.21,11.59-39,44.69-66.87,71.95-97.08A398.05,398.05,0,0,0,1582.62,988.2a404.39,404.39,0,0,1,138.91,68.28,177.26,177.26,0,0,0,10.57-77.18,310.19,310.19,0,0,1,113.22,110c21.86,36.39,42.27,82.15,84.06,89.94,131.61,24.53,48.27-164.71-4.69-199.06,127.74,30.24,228.52,109.62,262.24,206.53,9.6,27.59,14.11,56.48,27.3,83.07s37.08,51.57,73.1,60.85C2366.12,1350.91,2398.41,1291.59,2408,1245.53Z" transform="translate(348.54 161.45)"/><path class="cls-4" d="M-201.84,1860.66c-122.25-46.4-174.38-492.26-132.34-655.24,36.44-141.2,220.55-353.88,297.68-471.21,63.06-95.93,143-180,247.87-233-30.3,15.32-28.62,68,2.59,81.33C349.27,506.91,471.69,436.22,583.75,325,710.29,199.9,795.38,13.43,976-44.29c109.48-35,223.68-61,338.46-55,114.28,5.94,231.24,43.07,340.65,9.54-39.89,12.23-86,64.37-124.81,85.4-35.84,19.41-106.94,24-126.25,63.53,47.52-2.23,84,15.66,120.11,47,31.56,27.38,62.28,59.07,102.67,69.75-6.28-1.66-82.25,48.08-97.56,53.59-41.34,14.87-77,32.94-112,60-24.55,19-48.14,40.16-63.89,66.89-24.53,41.62-27.26,95.33-7.08,139.23s62.73,76.8,110.29,85.28c33.15,5.91,67.23.57,100.15-6.52a957.47,957.47,0,0,0,101.61-27.83c-20.22,28.15-55.1,73.63-55.47,109.5-1.35,132,206.75,65.28,273,61.66,103.07-5.64,248.86-7.58,339.38,46.91-40.87,21.5-71.76,61.13-82.63,106-2.42,10-3.75,21.08,1.19,30.1,4.15,7.56,12,12.27,19.6,16.27,71.59,37.53,159.7,42,234.71,11.84a488.47,488.47,0,0,0-59.47,65.9c-3.5,4.67-7.1,10.17-6,15.89,1.3,6.44,8,10.13,14,12.71,56.91,24.29,123.39,25.2,180.95,2.48-12.18,110,17.14,175.63,106.91,237.27,5.36,3.68,11.33,8.83,10.37,15.26-.48,3.26-2.72,6-5,8.34-19.22,19.75-215.28,63.06-286.2,70.68-222,23.85-1142.07,101.12-1380.35,89.93C751.63,1437.35-79.81,1907-201.84,1860.66Z" transform="translate(348.54 161.45)"/><path class="cls-5" d="M1893,224.23c-229.77-50.76-224,215.17-218.42,217.71C1790.76,495,1811.06,341.08,1893,224.23Z" transform="translate(348.54 161.45)"/><path d="M933.45,619.91s4.63,11.34,11.68,31.49c3.49,10.1,7.64,22.39,12,36.64s9,30.4,13.21,48.29,8.37,37.39,11.21,58.39c1.28,10.52,2.49,21.36,3,32.57l.25,4.2,0,4.37c0,2.77,0,5.56,0,8.36-.44,5.81-.53,11.91-1.43,17.68a228.23,228.23,0,0,1-20.24,69.76c-10.71,22.49-26.3,42-33.35,63l-1.32,3.91-.33,1c.26-1,0-.12.08-.27l-.06.28-.13.56-.48,2.23-1.94,8.91c-1.62,6.1-1.72,11.46-2.43,17-.8,5.41-.8,11.38-1,17.17s-.16,11.65,0,17.49c.54,23.39,2.9,46.7,4.28,69.83.27,5.84.65,11.53.81,17.36q.2,8.41.4,16.64.39,16.47.76,32.18c.5,20.91,1,40.68,1.4,58.92.86,36.5,1.59,66.92,2.09,88.21.33,21.4.51,33.63.51,33.63l-33.05-.15s.26-12.1.71-33.29c.26-21.29.64-51.71,1.09-88.22.23-18.25.47-38,.73-58.94q.19-15.69.4-32.18.1-8.23.21-16.64c0-5.37-.13-11-.18-16.54-.51-22.45-2.07-46.18-1.76-70.72,0-6.13.12-12.28.68-18.54s.67-12.4,1.84-19c1-6.39,1.7-13.22,3.44-18.84l2.26-8.84.56-2.21.44-1.65.43-1.17,1.76-4.68c4.77-12.41,11.47-23.4,18.09-33.71q4.9-7.6,9.8-15.16l4.46-7.27,4.32-7.87c10.31-20.23,17.78-42.37,21.06-64.09,1.07-5.47,1.27-10.72,1.92-16.06.1-2.8.21-5.58.31-8.36l.13-3.93-.09-4c0-10.76-.84-21.32-1.72-31.6-2-20.55-5.39-39.91-8.93-57.69s-7.63-34-11.34-48.24-7.46-26.64-10.57-36.79C933,633,928.86,621.66,928.86,621.66Z" transform="translate(348.54 161.45)"/><path d="M910.64,1001.48l-2.22-4.17c-1.41-2.7-3.42-6.65-5.88-11.71-4.9-10.12-11.64-24.68-18.6-42.65a427.83,427.83,0,0,1-19.36-63,252.11,252.11,0,0,1-5.35-37.15c-.77-12.83-.48-26.1,2.23-39.19a99.85,99.85,0,0,1,2.53-9.72l2.94-9.07,2.91-9c.87-3,1.43-5.82,2.16-8.73,1.58-5.7,2.28-11.74,3.28-17.59.73-5.89,1.23-11.76,1.53-17.54.07-5.79.38-11.49,0-17.07-.14-2.79-.18-5.56-.41-8.29s-.56-5.41-.83-8.06c-.42-5.32-1.56-10.41-2.26-15.39-1-4.91-2-9.69-3.14-14.2a208.76,208.76,0,0,0-7.69-24.27c-1.3-3.58-2.72-6.82-4.08-9.8s-2.7-5.67-3.94-8.08-2.46-4.5-3.54-6.29a43.94,43.94,0,0,0-2.86-4.47l-2.54-3.59,3.75-3,2.84,3.72a50.66,50.66,0,0,1,3.19,4.61c1.19,1.85,2.6,4,3.92,6.44s2.95,5.16,4.37,8.23,3.1,6.34,4.56,10a215.46,215.46,0,0,1,8.8,24.73c1.37,4.62,2.5,9.51,3.75,14.55.91,5.1,2.25,10.33,2.88,15.82q.57,4.11,1.16,8.33c.33,2.82.48,5.69.73,8.59.61,5.79.52,11.75.64,17.8a198.16,198.16,0,0,1-3.81,37.3c-.68,3.15-1.24,6.44-2,9.52l-2.61,9.05-2.58,9c-.93,2.8-1.29,5.8-1.94,8.69-2,11.78-1.89,24-.75,36a238,238,0,0,0,6.28,34.91,409.54,409.54,0,0,0,20.76,60c7.34,17.16,14.37,31.08,19.44,40.68,2.54,4.81,4.61,8.53,6,11l2.18,3.77Z" transform="translate(348.54 161.45)"/><path d="M978,813.1l2.69.21c1.71.11,4.18.26,7.33.37a198.91,198.91,0,0,0,26.26-.75,105.09,105.09,0,0,0,17.61-3.17c6.09-1.69,12.66-4.42,17.37-8.83a20.28,20.28,0,0,0,5-7.38,56.11,56.11,0,0,0,1.55-7.19c.82-4.56,1.66-9.18,2.49-13.81s1.49-9.29,2.24-13.86,1.4-9.08,2.08-13.44,1-8.6,1.52-12.61.89-7.79,1.29-11.29a90.18,90.18,0,0,0,.57-9.62c.09-2.87.17-5.37.24-7.43.13-4.12.21-6.47.21-6.47l-7.23.08s-.19,2.31-.51,6.33c-.16,2-.35,4.46-.57,7.26a90.73,90.73,0,0,1-1,9.42c-.56,3.46-1.17,7.2-1.81,11.17s-1.24,8.14-2.09,12.46-1.77,8.76-2.69,13.29-1.75,9.12-2.86,13.73-2.09,9.21-3.12,13.74a56.73,56.73,0,0,1-1.61,6.26,13.56,13.56,0,0,1-3.37,4.57c-3,2.65-7.54,4.52-12.39,5.74a88.09,88.09,0,0,1-14.7,2.29,178.36,178.36,0,0,1-23.59.15c-2.87-.15-5.11-.33-6.61-.47l-2.22-.22Z" transform="translate(348.54 161.45)"/><path d="M727.19,835.41s.42,3.15,1.53,8.5a182.24,182.24,0,0,0,6,21.93A128.77,128.77,0,0,0,740.52,880a78.28,78.28,0,0,0,9.18,14.84c3.87,4.77,8.71,9.44,15,12.36a30.45,30.45,0,0,0,10.13,2.84c1.86.21,3.42.27,4.93.32l4.64.18c24.68.9,49.36,2,67,4.94,8.76,1.42,15.92,3.52,19.11,5.51,1.63,1,1.86,1.61,1.73,1.46s-.2-.44-.13-.4l14.06-1.7a14,14,0,0,0-1.57-4.57,17.66,17.66,0,0,0-7.46-6.82c-6.34-3.26-14.43-4.81-24-6-19.08-2.18-44-2-68.68-1.62l-4.63.05c-1.58,0-3.1,0-4.31-.05a21.84,21.84,0,0,1-7.57-1.72c-4.89-1.92-9.15-5.52-12.76-9.54a71.81,71.81,0,0,1-9-13.1,120.81,120.81,0,0,1-6.21-13.2,175.15,175.15,0,0,1-6.88-21c-1.34-5.18-1.89-8.15-1.89-8.15Z" transform="translate(348.54 161.45)"/><path d="M1238.4,606.27c3.82,1.39,10.43-57.58,9-65.17-5.56-29.52-26.54-51.43-52.29-65.48-86.54-47.2-69.24-113.29-111.72-122.73s-39.34-88.12-107-56.65c-38.3,17.81-64.71,46.66-96.45,73.15-34.46,28.75-68.74,17.15-111.2,18.07-25.31.54-54.88,12.94-58.36,38-2.25,16.12,7.37,32.2,4.84,48.27-2.78,17.57-19.24,29.76-35.83,36.17-10.59,4.09-22.75,7.41-28.66,17.1-6.69,11-2.35,25.11,2.69,36.92,11.83,27.7,27.43,54.81,51.33,73.13,27.76,21.29,64.63,22.8,98.19,18.54,27.2-3.45,53.14-19.73,80.94-19.6,30.23.14,62.81,18.59,87.18,35.4,31.5,21.71,57.5,50.5,88.14,73.41,56,41.91,128.54,54.55,188.41,11.45,29.2-21,51-50.59,70.91-80.57,1.94-2.92,4-6.19,3.55-9.68-.36-3.11-2.57-5.65-4.73-7.93A208,208,0,0,0,1238.4,606.27Z" transform="translate(348.54 161.45)"/><path d="M673.3,812.42S712.83,757,739.39,767s25.37,7,47.2,22.12,44.26,23.91,16.52,32.76S804.29,862,722.27,859,607.8,826,673.3,812.42Z" transform="translate(348.54 161.45)"/><path d="M641.28,1204.05l-1.29,2.78c-.81,1.86-2,4.63-3.28,8.25s-2.67,8.06-4,13.21a105.22,105.22,0,0,0-2.71,17.45c-.32,6.36-.31,13.33,1.5,20.13s4.6,13.6,9.54,19.22c5.47,7,11.17,13.16,16.4,21.49l4,6,3.41,6.26,3.41,6.3c1.15,2.09,1.91,4.39,2.88,6.58a150,150,0,0,1,8.81,27.22c.84,4.63,1.78,9.23,2.51,13.79q.62,6.88,1.21,13.57c.47,4.46.16,8.81.27,13.1,0,2.14,0,4.25,0,6.34s0,3.92-.07,5.84c-.13,7.84-.25,15.26-.35,22.1s.21,12.88.27,18.35.25,10.16.55,14,.39,7,.6,9,.28,3,.28,3l-18.78,2-.23-3.52c-.18-2.32-.21-5.44-.37-9.56s-.24-9.06-.16-14.75-.11-12.22.27-19,.64-14.25,1-22.08c.08-2,.16-4,.25-6.09s.09-3.89.14-5.87c0-3.94.44-8,.11-12.09s-.49-8.23-.74-12.42c-.55-4.15-1.29-8.31-1.92-12.54a135.4,135.4,0,0,0-7.23-24.73c-.83-2-1.42-4.1-2.43-6l-2.93-5.8-2.92-5.78-3.4-5.38c-4.05-7.11-10.1-14.23-15-20.87-6.2-7.51-9.67-16.46-11.54-24.85s-1.71-16.57-1.13-23.81a116.49,116.49,0,0,1,3.57-19.33,148.46,148.46,0,0,1,4.76-14.22c1.48-3.87,2.87-6.83,3.82-8.87s1.57-3.12,1.57-3.12Z" transform="translate(348.54 161.45)"/><path d="M655,1311.58l1.3-.33c1-.28,1.38-.35,2.78-.82a62.9,62.9,0,0,0,10.68-4.91c4.15-2.45,8.91-5.9,11.75-10a14.23,14.23,0,0,0,1.62-3.07l.23-.76.14-.38v-.08c-.07,1.39,0,.36,0,.66v-.17l0-.34a18.84,18.84,0,0,0,.08-2.49,7.81,7.81,0,0,1-.14-1.4l-.51-2.29c-.38-1.56-.91-3.21-1.46-4.88-2.34-6.72-5.29-13.74-7.5-20.58-1.1-3.42-2.06-6.8-2.77-10.07a62.45,62.45,0,0,1-1.4-9.36,57.53,57.53,0,0,1-.09-8c.27-2.39.59-4.46.89-6.14,1-3.3,1.48-5.18,1.48-5.18l3.75,1.11s-.26,1.74-.73,4.78c-.07,1.54-.11,3.4-.09,5.52a49.43,49.43,0,0,0,1,7.1,56.16,56.16,0,0,0,2.32,8.2,96.32,96.32,0,0,0,3.71,8.91c2.87,6.14,6.52,12.43,10,19.38.85,1.77,1.69,3.57,2.45,5.52l1.08,3c.33,1.3.62,2.66.85,4a29,29,0,0,1,.26,2.94l0,.34v.17l-.05.8v.12l-.13.94-.29,1.89a27.54,27.54,0,0,1-2.35,6.71c-4.16,8-9.89,12.89-14.76,16.79a79.75,79.75,0,0,1-12.87,8c-1.58.8-3.63,1.63-4.25,1.87l-1.25.49Z" transform="translate(348.54 161.45)"/><path d="M549.75,1213.24c-14.1-8.57-20.07-24.24-9.56-38.06,9.82-12.92,67-43.83,81.19-52.42,12-7.3,29.5-4.31,42,2.46,22.85,12.4,35.08,27.06,65.39,28.24,16.84.65,42.12,13.86,40,18.3,1.46-3,24.86,34.62,6.84,44.93-2.12,1.21-39.45,18.62-48.2,20.2-25.8,4.64-12.51,23.68-25.38,32.49-12.45,8.53-33.41.21-41.56-9.1-11.84-13.53-19.27-25.48-38.87-32S552.82,1215.11,549.75,1213.24Z" transform="translate(348.54 161.45)"/><path d="M1913.06,932.39c-17.44,6.78-123.85,10.09-140.25-3,14.6,26.26,109.81,20.54,137,11.42-.71,2.94-4.4,9-2.35,11.37,16.87-11.81,87.42,39.45,88.68-16.67-11.61,2.36-25.72,7.2-36.69.15,36.14-31.61,79.69-51.9,102.74-97.54C2026.09,877.14,1961.26,913.65,1913.06,932.39Z" transform="translate(348.54 161.45)"/><path d="M1401.69,895.32s16.62-26.25,38.3-36.07,5,21.15-5.52,30.66a76.44,76.44,0,0,0-15.4,18.87s-3,123.9,72.38,156.4,113.52,68.33,186.72,47.87,97.86,2.24,100.61,42.34-18.07,96.65,16.53,109.53,51.38,12.41,71.65,54.66,30,83.71,43.45,86.3,9.59,34.31,9.59,34.31-40.65-5.54-46.68-27.11-41.79-100.35-41.79-100.35-137.93-13.23-150.5-39.31-26.79-58-26.79-58-177.74,29.6-200.55,8.49-133.75-58.79-132.08-33.89,20,53.79,19.09,56.86,44.24,13.35,48.17,27.4,6.31,37.7,6.31,37.7-50.5-37-64.19-46.89-17-39.29-18.44-44.52-73.9-52.63-39.61-57.28,60.41-13.29,106-4c-8.41-37.67,5.83-82.52,6.88-104s-28.58-87.13-28.58-87.13-62.35,5.09-70.5-3.9-42.59-25.09-5.73-31.87,83.44-19.1,83.58-26.18S1379.37,889.31,1401.69,895.32Z" transform="translate(348.54 161.45)"/><path d="M1378.14,905.19s25.51-26.39,20-46-42-31-57.27-38.48-43.7,3.29-42.79-27,2.32-35.41,2.32-35.41,2.93,42.4,13,43.33,40.65,9.3,40.65,9.3-27.46-32.72-13.43-53.09c0,0,20.46,53,31,57.11a20.65,20.65,0,0,1,12.47,14.36s-3.78-45.45,11.7-57.29c0,0-4.24,45.34,7.71,52.81s12.8,34,2.17,54.82-9.53,36.49-9.53,36.49Z" transform="translate(348.54 161.45)"/><path d="M1752.75,1119c3.79-2.82,28.52-22.76,27.19-35.08s-6-37.78-4.28-41.78c13.93,9.49,17.23,18.79,18.18,23.45s6-6.25,6-6.25,18.45,9.28,8.13,29.08-8.94,31-44,35.54S1752.75,1119,1752.75,1119Z" transform="translate(348.54 161.45)"/><path d="M308.13,835.18s4.63,11.34,11.68,31.49c3.5,10.09,7.64,22.39,12,36.64s9,30.4,13.22,48.28,8.37,37.4,11.2,58.4c1.29,10.52,2.49,21.36,2.95,32.56l.25,4.21,0,4.36q0,4.17,0,8.37c-.45,5.81-.53,11.91-1.44,17.68a228.21,228.21,0,0,1-20.23,69.76c-10.72,22.48-26.3,42-33.35,63l-1.33,3.91-.33,1c.26-1,0-.12.08-.27l-.06.28-.12.56-.49,2.23-1.93,8.91c-1.62,6.1-1.72,11.46-2.44,17-.79,5.41-.8,11.38-1,17.17s-.17,11.65,0,17.49c.54,23.39,2.91,46.7,4.29,69.83.26,5.84.64,11.53.81,17.36q.19,8.41.39,16.64.39,16.47.76,32.18c.5,20.91,1,40.67,1.4,58.92.87,36.5,1.59,66.92,2.09,88.21.33,21.4.51,33.63.51,33.63l-33-.15s.25-12.1.7-33.29c.26-21.29.64-51.71,1.09-88.22.23-18.25.48-38,.74-58.94q.19-15.69.4-32.18.09-8.23.2-16.64c0-5.37-.12-11-.18-16.55-.51-22.45-2.06-46.17-1.76-70.71.06-6.13.12-12.28.68-18.54s.67-12.4,1.84-19c1-6.4,1.7-13.22,3.44-18.84l2.26-8.84.56-2.21.44-1.65.44-1.17,1.75-4.68c4.77-12.41,11.47-23.4,18.09-33.71l9.8-15.16,4.46-7.27,4.32-7.87c10.32-20.23,17.78-42.37,21.06-64.09,1.07-5.47,1.28-10.72,1.92-16.06.11-2.8.21-5.58.32-8.36l.13-3.93-.1-4c-.05-10.76-.84-21.32-1.71-31.6-2-20.55-5.4-39.91-8.94-57.69s-7.62-34-11.34-48.24-7.46-26.64-10.56-36.79c-6.3-20.29-10.46-31.65-10.46-31.65Z" transform="translate(348.54 161.45)"/><path d="M337.85,1110.29s2.14-3.12,5.75-8.89,8.6-14.06,14.12-24.29a337.28,337.28,0,0,0,16.85-35.8,197.32,197.32,0,0,0,6.94-21,105.26,105.26,0,0,0,2.39-11l.49-2.76.21-1.2.14-1.47.55-5.86a160.66,160.66,0,0,0-.26-22.57c-.51-7.55-1.5-15-2.43-22.28-2-14.52-4-28.31-4.34-40.46-.14-3,0-6,0-8.75s.42-5.46.6-8a75,75,0,0,1,2.69-12.87,47.24,47.24,0,0,1,3-8c.8-1.82,1.23-2.78,1.23-2.78l7.68,4s-.35.84-1,2.4a39.22,39.22,0,0,0-2.51,6.92,65.13,65.13,0,0,0-2.25,11.37c-.13,2.28-.39,4.67-.46,7.24s-.07,5.29.09,8.15c.47,11.41,2.56,24.85,4.71,39.47,1,7.33,2.12,14.94,2.74,22.81a167.9,167.9,0,0,1,.51,24.24l-.48,5.87-.12,1.46-.25,1.7-.5,3a113.74,113.74,0,0,1-2.46,11.86,205,205,0,0,1-7.06,22.19,349.84,349.84,0,0,1-17,37.17c-5.55,10.56-10.59,19.13-14.21,25.08s-5.87,9.3-5.87,9.3Z" transform="translate(348.54 161.45)"/><path d="M386.23,1001.62l1-.77c.66-.54,1.65-1.4,2.89-2.57a78.57,78.57,0,0,0,9.39-10.83,91.24,91.24,0,0,0,5.28-8.14,89.05,89.05,0,0,0,4.91-9.72,102.77,102.77,0,0,0,4.12-11c.55-1.93,1.11-3.86,1.67-5.81l1.3-6c.84-4.07,1.25-7.93,1.89-12.23.56-4.12,1.12-8.17,1.65-12.1s1.49-7.82,2.16-11.45a103,103,0,0,1,2.63-10.15c.74-3.15,2.17-5.94,3.08-8.44a38.82,38.82,0,0,1,3.56-6.25l1.81-2.18c.65-.6,1.3-1.07,1.79-1.45a9.35,9.35,0,0,1,1.92-1l1.49,4.48a8.17,8.17,0,0,0-.71.48l-1,.88c-.36.5-.78,1.06-1.25,1.7a35.23,35.23,0,0,0-2.74,5.43c-.71,2.38-1.89,4.84-2.46,7.92s-1.62,6.2-2,9.73-1.2,7.12-1.56,11.06-.71,8-1.07,12.16c-.41,3.93-.69,8.51-1.37,12.74l-1.09,6.45L422,961a109.86,109.86,0,0,1-3.9,12.07,95.46,95.46,0,0,1-4.86,10.88,101,101,0,0,1-5.41,9.27,90.6,90.6,0,0,1-10.05,12.75c-1.39,1.43-2.54,2.53-3.37,3.28l-1.36,1.16Z" transform="translate(348.54 161.45)"/><path d="M149.66,909c-13.46-5.86-23.28-15.87-22.53-32.32,1-21.44,29-34.64,29.63-57.47.42-16.66-14.21-32-10.4-48.22,3.73-15.9,22.5-22.5,38.63-25.08s48.57-33.5,51.61-40.61c7.6-17.8,29.12-28.37,47.86-23.5-19.63-5.1,40.36-70,46.49-73.61,34.25-20.29,99.59-34.09,138.38-20.36C497,597.6,513.75,631,505.1,659c2-5.92,115.27,29,123.86,32.85,14.79,6.6,34.24,17.68,29.33,37-2.15,8.45-.14,48.46,9.55,56.09s31.56,167.53-30.61,184.89c-14.17,3.95-68.83,34.34-85.3,41.13-23.63,9.74-51.22,1.15-72.35-13.24s-38-34.11-58-50a203.49,203.49,0,0,0-145.1-43c-24.2,2.37-47.83,9.11-72.05,11.22C189.85,917.19,166.8,916.45,149.66,909Z" transform="translate(348.54 161.45)"/><path d="M316.69,1181.28c35.62-54.82,76-85.27,122.07-86.7l5.95,13.51c-36.85-6.9-84.46,23.26-138.25,96.28Z" transform="translate(348.54 161.45)"/><path d="M345.85,1006.62c-45.11-9.6-76.61-29.3-91.92-61l6.51-7.9c7.27,27.61,30.75,47,95,65.92Z" transform="translate(348.54 161.45)"/><path d="M528.45,1136.56s-45.27,68.15-70.67,53.07-24.55-11.15-44.72-32.33-41.57-34.4-13-43.52,3.07-51.74,84.5-41.23S595.16,1124.45,528.45,1136.56Z" transform="translate(348.54 161.45)"/><path d="M288,949.31s-21.36,19.57-35.65,18-20.11,26.08-32.65,21.58S162,970.4,174.66,962.83s42.86-21.17,83.72-29.72S318.78,934.92,288,949.31Z" transform="translate(348.54 161.45)"/><path d="M2186.94,1210.26s3,7.42,7.64,20.59c2.29,6.6,5,14.65,7.83,24s5.88,19.88,8.64,31.58,5.47,24.45,7.33,38.18c.84,6.88,1.62,14,1.93,21.3l.16,2.75v2.85c0,1.82,0,3.64,0,5.47-.29,3.8-.34,7.79-.93,11.57a149.45,149.45,0,0,1-13.24,45.61c-7,14.71-17.2,27.44-21.81,41.18l-.86,2.56-.22.64c.17-.66,0-.08.05-.18l0,.19-.08.36-.31,1.46-1.27,5.83c-1.06,4-1.13,7.49-1.59,11.15a106.71,106.71,0,0,0-.67,11.22c-.21,3.78-.1,7.62,0,11.44.36,15.29,1.9,30.54,2.8,45.66.18,3.82.42,7.55.53,11.36s.17,7.29.26,10.88q.26,10.77.5,21c.32,13.67.63,26.6.91,38.53.57,23.87,1,43.76,1.37,57.68l.33,22-21.61-.1s.17-7.92.46-21.77.42-33.82.72-57.69c.15-11.94.31-24.87.48-38.54.08-6.84.17-13.87.26-21,0-3.59.09-7.22.13-10.88,0-3.51-.08-7.18-.11-10.82-.34-14.68-1.35-30.19-1.15-46.24,0-4,.07-8,.44-12.13a118.52,118.52,0,0,1,1.2-12.4c.67-4.19,1.12-8.65,2.25-12.33l1.48-5.78.37-1.44.28-1.08.29-.77,1.15-3c3.12-8.12,7.5-15.31,11.83-22l6.4-9.91,2.92-4.76,2.83-5.15a139.91,139.91,0,0,0,13.77-41.9c.7-3.58.83-7,1.25-10.51q.1-2.74.21-5.46l.08-2.57-.06-2.65c0-7-.55-13.93-1.12-20.66-1.32-13.44-3.53-26.1-5.84-37.73s-5-22.2-7.42-31.54-4.87-17.42-6.91-24.06c-4.11-13.27-6.84-20.7-6.84-20.7Z" transform="translate(348.54 161.45)"/><path d="M2172,1459.78l-1.46-2.73c-.92-1.76-2.23-4.34-3.84-7.65-3.21-6.62-7.61-16.15-12.16-27.89a278.41,278.41,0,0,1-12.66-41.22,164.6,164.6,0,0,1-3.5-24.29,97.33,97.33,0,0,1,1.46-25.63c.54-2.12.9-4.27,1.65-6.35l1.92-5.93,1.91-5.86c.57-1.93.93-3.81,1.41-5.71,1-3.73,1.49-7.68,2.14-11.5.48-3.85.81-7.69,1-11.47s.25-7.52,0-11.17c-.1-1.82-.13-3.64-.27-5.42s-.37-3.53-.55-5.27c-.27-3.48-1-6.8-1.47-10.06-.68-3.21-1.29-6.34-2.06-9.29a134,134,0,0,0-5-15.87c-.84-2.34-1.78-4.46-2.67-6.41s-1.76-3.71-2.57-5.28-1.61-2.94-2.32-4.12a31.26,31.26,0,0,0-1.86-2.92l-1.67-2.34,2.45-2,1.87,2.43a33.13,33.13,0,0,1,2.08,3c.78,1.2,1.7,2.58,2.56,4.2s1.93,3.38,2.86,5.39,2,4.14,3,6.51a141.16,141.16,0,0,1,5.76,16.17c.89,3,1.63,6.22,2.45,9.51.59,3.34,1.47,6.76,1.88,10.35.25,1.8.5,3.61.76,5.45s.31,3.72.48,5.62c.4,3.78.34,7.68.42,11.64a129.2,129.2,0,0,1-2.5,24.39c-.44,2.06-.81,4.21-1.32,6.22l-1.71,5.92-1.69,5.9c-.6,1.83-.84,3.79-1.26,5.68a89.35,89.35,0,0,0-.5,23.51,156.45,156.45,0,0,0,4.11,22.83,269.1,269.1,0,0,0,13.57,39.24c4.8,11.22,9.4,20.32,12.72,26.6,1.66,3.14,3,5.58,3.94,7.22s1.43,2.46,1.43,2.46Z" transform="translate(348.54 161.45)"/><path d="M2146.77,1326.54l-.94.21c-.6.11-1.47.25-2.57.35a25.3,25.3,0,0,1-9.2-.72,17.56,17.56,0,0,1-6.17-3.07,19.08,19.08,0,0,1-6.09-8.54,33.61,33.61,0,0,1-1.76-7.14c-.31-2.73-.38-4.72-.54-7-.29-4.4-.58-8.87-.87-13.35s-.52-9-.79-13.41-.49-8.78-.73-13-.36-8.32-.53-12.19-.31-7.55-.45-10.93-.15-6.54-.2-9.3-.06-5.2-.08-7.2c0-4-.08-6.26-.08-6.26l2.54.09s.06,2.23.17,6.12c.06,2,.13,4.31.21,7s.1,5.76.34,9.11.41,7,.64,10.81.43,7.87.73,12,.62,8.48.94,12.86.61,8.82,1,13.28.74,8.91,1.1,13.29c.18,2.16.35,4.55.56,6.06a21.21,21.21,0,0,0,1.18,4.42,12.35,12.35,0,0,0,4.34,5.55,13.88,13.88,0,0,0,5.15,2.21,22.79,22.79,0,0,0,8.27.16c1-.16,1.79-.33,2.31-.46l.78-.22Z" transform="translate(348.54 161.45)"/><path d="M2121.42,1296.66l-.94.13c-.6.07-1.47.17-2.57.23a38.48,38.48,0,0,1-9.21-.47,22.41,22.41,0,0,1-6.16-2,14.48,14.48,0,0,1-6.09-5.59,15.78,15.78,0,0,1-1.76-4.67c-.31-1.78-.38-3.09-.54-4.55-.29-2.88-.58-5.81-.87-8.73s-.52-5.89-.79-8.78-.49-5.75-.73-8.5-.36-5.45-.53-8-.31-4.94-.45-7.15-.15-4.28-.2-6.09-.06-3.4-.09-4.71c0-2.6-.07-4.09-.07-4.09l2.53.06s.07,1.45.18,4c.06,1.27.13,2.82.2,4.59s.11,3.77.35,6,.41,4.57.63,7.07.44,5.16.73,7.89.63,5.55.95,8.41.61,5.77,1,8.69.73,5.83,1.1,8.7c.18,1.41.34,3,.56,4a10,10,0,0,0,1.18,2.89,9.85,9.85,0,0,0,4.34,3.64,18.36,18.36,0,0,0,5.15,1.44,34.48,34.48,0,0,0,8.27.1c1-.1,1.79-.21,2.31-.3l.78-.14Z" transform="translate(348.54 161.45)"/><path d="M2300.64,1362.56s-.28,2.06-1,5.56a120.23,120.23,0,0,1-3.91,14.34,85.74,85.74,0,0,1-3.81,9.28,51.77,51.77,0,0,1-6,9.7,27.91,27.91,0,0,1-9.85,8.08,19.67,19.67,0,0,1-6.62,1.86c-1.21.14-2.24.18-3.22.21l-3,.12c-16.14.58-32.27,1.29-43.85,3.23-5.72.93-10.4,2.3-12.49,3.6-1.07.63-1.22,1-1.13,1s.13-.3.08-.27l-9.19-1.11a9.11,9.11,0,0,1,1-3,11.49,11.49,0,0,1,4.87-4.45c4.15-2.14,9.44-3.15,15.7-3.9,12.47-1.43,28.73-1.28,44.91-1.06l3,0c1,0,2,0,2.82,0a13.93,13.93,0,0,0,4.95-1.12,22.7,22.7,0,0,0,8.34-6.24,46.69,46.69,0,0,0,5.9-8.56,79.92,79.92,0,0,0,4.07-8.64,114.85,114.85,0,0,0,4.49-13.71c.88-3.39,1.24-5.32,1.24-5.32Z" transform="translate(348.54 161.45)"/><path d="M2392.32,1196.55c-7.18-11.12,2.62-27.43-.73-40.93-4.43-17.88-17.71-31.08-33.53-39.71-11.15-6.09-20.83-10.25-24.21-24.11-1.09-4.46-1.22-9.1-2.18-13.59-2.84-13.32-12.84-24.22-24.49-31.27-10.08-6.1-24-7.41-33-14.63-6.45-5.14-9.74-14-14.6-20.59-12.1-16.29-24.78-22.3-44.52-13.12-44.24,20.58-56.59,50.42-88.49,64.83s-61.74,51.45-47.33,61.74c8.38,6-22.77,19.48-26,21.31-21,11.78-29.38,22.39-33.72,46.44-1.4,7.7-.49,16.16,4.17,22.44,5,6.67,13.17,9.88,21,12.76l16.6,6.15c24.86,9.21,79.57-23.86,96.22-7.24,11.37,11.36,20.39,25.3,34.76,33.36,13.72,7.69,32.89,9.83,48.22,13.61a221,221,0,0,0,130.21-7.6c11.29-4.28,22.59-9.77,30.36-19s11.17-23,5.4-33.65c-3.46-6.38-9.67-10.82-13.78-16.81C2392.48,1196.8,2392.4,1196.68,2392.32,1196.55Z" transform="translate(348.54 161.45)"/><path d="M2265.4,1362.06s25.85-36.27,43.21-29.71,16.6,4.61,30.87,14.46,28.94,15.64,10.81,21.43.77,26.24-52.87,24.31S2222.56,1370.94,2265.4,1362.06Z" transform="translate(348.54 161.45)"/><path d="M51.74,1733.12c475.08,1353.34,2694.51,343,2607.7,151.19C1687.32,1137.56,650,1207.24,51.74,1733.12Z" transform="translate(348.54 161.45)"/><path class="cls-6" d="M80.51,1851.79c630.38,1531.71,2338,1097.88,2713.49,98.27C1364.78,2345.74,1442.66,1029.5,80.51,1851.79Z" transform="translate(348.54 161.45)"/><path d="M1155.35,194.85c-17.43,6.78-123.84,10.09-140.24-3,14.59,26.26,109.8,20.53,137,11.42-.71,2.94-4.4,9-2.34,11.36,16.87-11.81,87.41,39.45,88.68-16.66-11.62,2.35-25.73,7.19-36.7.15,36.15-31.62,79.69-51.91,102.75-97.55C1268.39,139.61,1203.55,176.11,1155.35,194.85Z" transform="translate(348.54 161.45)"/></g><path class="cls-7" d="M2329.26,603.21c-36.22-4.68,2-59.21-5.82-77.65.41,28.67-59.23,70-.7,83.23-1.92,2.15-7.77,5.59-7.1,8.5,28.92-5.83,37.34,30.29,114.6-34.74-26.67,2.8-49,15.46-66.07,22.31,45.07-22.09,16-46.46,56.06-74.4C2372.22,547,2378.21,609.54,2329.26,603.21Z" transform="translate(348.54 161.45)"/><path class="cls-7" d="M1845.09,495.65c-17.44,6.78-123.85,10.09-140.25-3,14.59,26.26,109.81,20.53,137,11.41-.72,3-4.4,9-2.35,11.37,16.87-11.81,87.42,39.45,88.68-16.67-11.62,2.36-25.72,7.2-36.7.16,36.15-31.62,79.69-51.91,102.75-97.55C1958.12,440.41,1893.28,476.91,1845.09,495.65Z" transform="translate(348.54 161.45)"/></g></g></svg>