<?xml version="1.0" encoding="iso-8859-1"?>
<!-- Generator: Adobe Illustrator 19.0.0, SVG Export Plug-In . SVG Version: 6.00 Build 0)  -->
<svg version="1.1" id="Layer_1" xmlns="http://www.w3.org/2000/svg" xmlns:xlink="http://www.w3.org/1999/xlink" x="0px" y="0px"
	 viewBox="0 0 512 512" style="enable-background:new 0 0 512 512;" xml:space="preserve">
<g>
	<g>
		<path d="M275.692,318.464v-167.49h-39.385v167.49c-22.921,8.129-39.385,30.018-39.385,55.69c0,32.575,26.502,59.077,59.077,59.077
			s59.077-26.502,59.077-59.077C315.077,348.482,298.613,326.593,275.692,318.464z M256,393.846
			c-10.858,0-19.692-8.834-19.692-19.692s8.834-19.692,19.692-19.692c10.858,0,19.692,8.834,19.692,19.692
			S266.858,393.846,256,393.846z"/>
	</g>
</g>
<g>
	<g>
		<path d="M354.462,277.694V98.462C354.462,44.17,310.292,0,256,0s-98.462,44.17-98.462,98.462v179.233
			c-25.133,25.675-39.385,60.341-39.385,96.46C118.154,450.162,179.992,512,256,512s137.846-61.838,137.846-137.846
			C393.846,338.036,379.594,303.369,354.462,277.694z M256,472.615c-54.292,0-98.462-44.17-98.462-98.462
			c0-27.963,11.965-54.712,32.827-73.387l6.558-5.871V98.462c0-32.575,26.502-59.077,59.077-59.077s59.077,26.502,59.077,59.077
			v196.435l6.558,5.871c20.862,18.675,32.827,45.424,32.827,73.387C354.462,428.446,310.292,472.615,256,472.615z"/>
	</g>
</g>
<g>
</g>
<g>
</g>
<g>
</g>
<g>
</g>
<g>
</g>
<g>
</g>
<g>
</g>
<g>
</g>
<g>
</g>
<g>
</g>
<g>
</g>
<g>
</g>
<g>
</g>
<g>
</g>
<g>
</g>
</svg>
